<svg width="167" height="32" viewBox="0 0 167 32" fill="none" xmlns="http://www.w3.org/2000/svg">
<path d="M7.90425 25.24C6.70425 25.24 5.66425 25.04 4.78425 24.64C3.90425 24.24 3.22425 23.672 2.74425 22.936C2.28025 22.184 2.04025 21.304 2.02425 20.296H5.02425C5.02425 21.016 5.28025 21.584 5.79225 22C6.32025 22.4 7.03225 22.6 7.92825 22.6C8.79225 22.6 9.46425 22.4 9.94425 22C10.4403 21.6 10.6883 21.048 10.6883 20.344C10.6883 19.752 10.5123 19.24 10.1603 18.808C9.82425 18.36 9.33625 18.056 8.69625 17.896L6.68025 17.344C5.30425 16.992 4.24025 16.36 3.48825 15.448C2.75225 14.536 2.38425 13.432 2.38425 12.136C2.38425 11.144 2.60825 10.28 3.05625 9.544C3.50425 8.808 4.13625 8.24 4.95225 7.84C5.78425 7.44 6.76025 7.24 7.88025 7.24C9.57625 7.24 10.9203 7.68 11.9123 8.56C12.9043 9.424 13.4083 10.592 13.4243 12.064H10.4243C10.4243 11.376 10.2003 10.84 9.75225 10.456C9.30425 10.056 8.67225 9.856 7.85625 9.856C7.07225 9.856 6.46425 10.04 6.03225 10.408C5.60025 10.776 5.38425 11.296 5.38425 11.968C5.38425 12.576 5.54425 13.096 5.86425 13.528C6.20025 13.944 6.68025 14.24 7.30425 14.416L9.39225 14.992C10.7843 15.344 11.8483 15.976 12.5843 16.888C13.3203 17.784 13.6883 18.896 13.6883 20.224C13.6883 21.216 13.4483 22.096 12.9683 22.864C12.4883 23.616 11.8163 24.2 10.9523 24.616C10.0883 25.032 9.07225 25.24 7.90425 25.24ZM20.7349 25V10.264H16.1509V7.48H28.3429V10.264H23.7589V25H20.7349ZM31.2615 25V7.48H36.8055C37.9735 7.48 38.9815 7.696 39.8295 8.128C40.6935 8.56 41.3655 9.168 41.8455 9.952C42.3255 10.72 42.5655 11.632 42.5655 12.688C42.5655 13.84 42.2695 14.856 41.6775 15.736C41.1015 16.616 40.3175 17.24 39.3255 17.608L42.8055 25H39.4455L36.3975 18.04H34.2615V25H31.2615ZM34.2615 15.4H36.8055C37.6535 15.4 38.3175 15.168 38.7975 14.704C39.2775 14.24 39.5175 13.6 39.5175 12.784C39.5175 11.952 39.2775 11.304 38.7975 10.84C38.3175 10.36 37.6535 10.12 36.8055 10.12H34.2615V15.4ZM51.0281 25.24C49.9081 25.24 48.9321 25.032 48.1001 24.616C47.2841 24.184 46.6521 23.584 46.2041 22.816C45.7721 22.032 45.5561 21.112 45.5561 20.056V12.424C45.5561 11.368 45.7721 10.456 46.2041 9.688C46.6521 8.904 47.2841 8.304 48.1001 7.888C48.9321 7.456 49.9081 7.24 51.0281 7.24C52.1641 7.24 53.1401 7.456 53.9561 7.888C54.7721 8.304 55.3961 8.904 55.8281 9.688C56.2761 10.456 56.5001 11.36 56.5001 12.4V20.056C56.5001 21.112 56.2761 22.032 55.8281 22.816C55.3961 23.584 54.7721 24.184 53.9561 24.616C53.1401 25.032 52.1641 25.24 51.0281 25.24ZM51.0281 22.6C51.8441 22.6 52.4601 22.384 52.8761 21.952C53.2921 21.504 53.5001 20.872 53.5001 20.056V12.424C53.5001 11.592 53.2921 10.96 52.8761 10.528C52.4601 10.096 51.8441 9.88 51.0281 9.88C50.2121 9.88 49.5961 10.096 49.1801 10.528C48.7641 10.96 48.5561 11.592 48.5561 12.424V20.056C48.5561 20.872 48.7641 21.504 49.1801 21.952C49.6121 22.384 50.2281 22.6 51.0281 22.6ZM59.9468 25V7.48H63.6188L68.4908 21.64C68.4428 21.128 68.3868 20.528 68.3228 19.84C68.2748 19.136 68.2348 18.424 68.2028 17.704C68.1708 16.968 68.1548 16.328 68.1548 15.784V7.48H70.8907V25H67.2188L62.3948 10.84C62.4268 11.304 62.4668 11.864 62.5148 12.52C62.5628 13.176 62.6028 13.848 62.6348 14.536C62.6668 15.224 62.6828 15.856 62.6828 16.432V25H59.9468ZM79.9054 25.24C78.7854 25.24 77.8014 25.032 76.9534 24.616C76.1214 24.184 75.4734 23.584 75.0094 22.816C74.5614 22.032 74.3374 21.112 74.3374 20.056V12.424C74.3374 11.352 74.5614 10.432 75.0094 9.664C75.4734 8.896 76.1214 8.304 76.9534 7.888C77.8014 7.456 78.7854 7.24 79.9054 7.24C81.0414 7.24 82.0174 7.456 82.8334 7.888C83.6654 8.304 84.3134 8.896 84.7774 9.664C85.2414 10.432 85.4734 11.352 85.4734 12.424H82.4494C82.4494 11.592 82.2254 10.96 81.7774 10.528C81.3454 10.096 80.7214 9.88 79.9054 9.88C79.0894 9.88 78.4574 10.096 78.0094 10.528C77.5614 10.96 77.3374 11.584 77.3374 12.4V20.056C77.3374 20.872 77.5614 21.504 78.0094 21.952C78.4574 22.4 79.0894 22.624 79.9054 22.624C80.7214 22.624 81.3454 22.4 81.7774 21.952C82.2254 21.504 82.4494 20.872 82.4494 20.056V18.28H79.4734V15.688H85.4734V20.056C85.4734 21.112 85.2414 22.032 84.7774 22.816C84.3134 23.584 83.6654 24.184 82.8334 24.616C82.0174 25.032 81.0414 25.24 79.9054 25.24Z" fill="#E6E5EA"/>
<rect x="103" y="2" width="10" height="28" fill="#A4FFAF"/>
<rect x="121" y="2" width="10" height="28" fill="#A4FFAF"/>
<rect x="139" y="2" width="10" height="28" fill="#A4FFAF"/>
<rect x="157" y="2" width="10" height="28" fill="#A4FFAF"/>
</svg>
