<svg width="210" height="32" viewBox="0 0 210 32" fill="none" xmlns="http://www.w3.org/2000/svg">
<path d="M6.17238 25V10.264H1.58838V7.48H13.7804V10.264H9.19638V25H6.17238ZM22.075 25.24C20.955 25.24 19.979 25.032 19.147 24.616C18.331 24.184 17.699 23.584 17.251 22.816C16.819 22.032 16.603 21.112 16.603 20.056V12.424C16.603 11.368 16.819 10.456 17.251 9.688C17.699 8.904 18.331 8.304 19.147 7.888C19.979 7.456 20.955 7.24 22.075 7.24C23.211 7.24 24.187 7.456 25.003 7.888C25.819 8.304 26.443 8.904 26.875 9.688C27.323 10.456 27.547 11.36 27.547 12.4V20.056C27.547 21.112 27.323 22.032 26.875 22.816C26.443 23.584 25.819 24.184 25.003 24.616C24.187 25.032 23.211 25.24 22.075 25.24ZM22.075 22.6C22.891 22.6 23.507 22.384 23.923 21.952C24.339 21.504 24.547 20.872 24.547 20.056V12.424C24.547 11.592 24.339 10.96 23.923 10.528C23.507 10.096 22.891 9.88 22.075 9.88C21.259 9.88 20.643 10.096 20.227 10.528C19.811 10.96 19.603 11.592 19.603 12.424V20.056C19.603 20.872 19.811 21.504 20.227 21.952C20.659 22.384 21.275 22.6 22.075 22.6ZM36.4656 25.24C35.3456 25.24 34.3696 25.032 33.5376 24.616C32.7216 24.184 32.0896 23.584 31.6416 22.816C31.2096 22.032 30.9936 21.112 30.9936 20.056V12.424C30.9936 11.368 31.2096 10.456 31.6416 9.688C32.0896 8.904 32.7216 8.304 33.5376 7.888C34.3696 7.456 35.3456 7.24 36.4656 7.24C37.6016 7.24 38.5776 7.456 39.3936 7.888C40.2096 8.304 40.8336 8.904 41.2656 9.688C41.7136 10.456 41.9376 11.36 41.9376 12.4V20.056C41.9376 21.112 41.7136 22.032 41.2656 22.816C40.8336 23.584 40.2096 24.184 39.3936 24.616C38.5776 25.032 37.6016 25.24 36.4656 25.24ZM36.4656 22.6C37.2816 22.6 37.8976 22.384 38.3136 21.952C38.7296 21.504 38.9376 20.872 38.9376 20.056V12.424C38.9376 11.592 38.7296 10.96 38.3136 10.528C37.8976 10.096 37.2816 9.88 36.4656 9.88C35.6496 9.88 35.0336 10.096 34.6176 10.528C34.2016 10.96 33.9936 11.592 33.9936 12.424V20.056C33.9936 20.872 34.2016 21.504 34.6176 21.952C35.0496 22.384 35.6656 22.6 36.4656 22.6ZM60.2309 25L58.4309 7.48H61.0229L62.0789 19.72C62.1109 19.992 62.1349 20.328 62.1509 20.728C62.1829 21.112 62.2069 21.504 62.2229 21.904C62.2549 22.304 62.2709 22.656 62.2709 22.96C62.3029 22.656 62.3349 22.304 62.3669 21.904C62.3989 21.504 62.4309 21.112 62.4629 20.728C62.5109 20.328 62.5509 19.992 62.5829 19.72L64.0229 7.48H66.5429L67.8869 19.72C67.9349 19.992 67.9749 20.328 68.0069 20.728C68.0549 21.112 68.1029 21.504 68.1509 21.904C68.1989 22.304 68.2389 22.656 68.2709 22.96C68.2869 22.656 68.3029 22.304 68.3189 21.904C68.3349 21.504 68.3509 21.112 68.3669 20.728C68.3989 20.328 68.4309 19.992 68.4629 19.72L69.4949 7.48H72.0629L70.1669 25H66.8549L65.5589 12.712C65.5269 12.408 65.4869 12.056 65.4389 11.656C65.4069 11.24 65.3749 10.832 65.3429 10.432C65.3109 10.016 65.2869 9.664 65.2709 9.376C65.2549 9.664 65.2229 10.016 65.1749 10.432C65.1429 10.832 65.1109 11.24 65.0789 11.656C65.0469 12.056 65.0149 12.408 64.9829 12.712L63.5669 25H60.2309ZM74.5495 25V7.48H85.0615V10.096H77.5015V14.656H84.2215V17.248H77.5015V22.384H85.0615V25H74.5495ZM87.6681 25L92.0841 7.48H95.9481L100.388 25H97.3161L96.3561 20.752H91.7001L90.7401 25H87.6681ZM92.2521 18.304H95.8041L94.7481 13.6C94.5721 12.816 94.4201 12.112 94.2921 11.488C94.1641 10.848 94.0761 10.384 94.0281 10.096C93.9801 10.384 93.8921 10.848 93.7641 11.488C93.6521 12.112 93.5001 12.808 93.3081 13.576L92.2521 18.304ZM103.043 25V7.48H106.043V14.56H108.131L111.419 7.48H114.683L110.771 15.88L114.875 25H111.539L108.083 17.296H106.043V25H103.043ZM121.705 19.408L121.177 10.792V7.48H124.441V10.792L123.913 19.408H121.705ZM122.449 25.12C121.953 25.12 121.553 24.976 121.249 24.688C120.945 24.384 120.793 24 120.793 23.536C120.793 23.072 120.945 22.696 121.249 22.408C121.553 22.104 121.953 21.952 122.449 21.952H123.169C123.681 21.952 124.081 22.096 124.369 22.384C124.673 22.672 124.825 23.056 124.825 23.536C124.825 24 124.673 24.384 124.369 24.688C124.065 24.976 123.657 25.12 123.145 25.12H122.449Z" fill="#E6E5EA"/>
<rect x="146" y="2" width="10" height="28" fill="#F64A4A"/>
<rect x="165" y="3" width="8" height="26" stroke="#E6E5EA" stroke-width="2"/>
<rect x="183" y="3" width="8" height="26" stroke="#E6E5EA" stroke-width="2"/>
<rect x="201" y="3" width="8" height="26" stroke="#E6E5EA" stroke-width="2"/>
</svg>