<svg width="138" height="32" viewBox="0 0 138 32" fill="none" xmlns="http://www.w3.org/2000/svg">
<path d="M2.6215 25L0.8215 7.48H3.4135L4.4695 19.72C4.5015 19.992 4.5255 20.328 4.5415 20.728C4.5735 21.112 4.5975 21.504 4.6135 21.904C4.6455 22.304 4.6615 22.656 4.6615 22.96C4.6935 22.656 4.7255 22.304 4.7575 21.904C4.7895 21.504 4.8215 21.112 4.8535 20.728C4.9015 20.328 4.9415 19.992 4.9735 19.72L6.4135 7.48H8.9335L10.2775 19.72C10.3255 19.992 10.3655 20.328 10.3975 20.728C10.4455 21.112 10.4935 21.504 10.5415 21.904C10.5895 22.304 10.6295 22.656 10.6615 22.96C10.6775 22.656 10.6935 22.304 10.7095 21.904C10.7255 21.504 10.7415 21.112 10.7575 20.728C10.7895 20.328 10.8215 19.992 10.8535 19.72L11.8855 7.48H14.4535L12.5575 25H9.2455L7.9495 12.712C7.9175 12.408 7.8775 12.056 7.8295 11.656C7.7975 11.24 7.7655 10.832 7.7335 10.432C7.7015 10.016 7.6775 9.664 7.6615 9.376C7.6455 9.664 7.6135 10.016 7.5655 10.432C7.5335 10.832 7.5015 11.24 7.4695 11.656C7.4375 12.056 7.4055 12.408 7.3735 12.712L5.9575 25H2.6215ZM16.9401 25V7.48H27.4521V10.096H19.8921V14.656H26.6121V17.248H19.8921V22.384H27.4521V25H16.9401ZM30.0588 25L34.4748 7.48H38.3388L42.7787 25H39.7068L38.7468 20.752H34.0908L33.1308 25H30.0588ZM34.6428 18.304H38.1948L37.1388 13.6C36.9628 12.816 36.8108 12.112 36.6828 11.488C36.5548 10.848 36.4668 10.384 36.4188 10.096C36.3708 10.384 36.2828 10.848 36.1548 11.488C36.0428 12.112 35.8908 12.808 35.6988 13.576L34.6428 18.304ZM45.4334 25V7.48H48.4334V14.56H50.5214L53.8094 7.48H57.0734L53.1614 15.88L57.2654 25H53.9294L50.4734 17.296H48.4334V25H45.4334Z" fill="#E6E5EA"/>
<rect x="74" y="2" width="10" height="28" fill="#FB7C58"/>
<rect x="92" y="2" width="10" height="28" fill="#FB7C58"/>
<rect x="111" y="3" width="8" height="26" stroke="#E6E5EA" stroke-width="2"/>
<rect x="129" y="3" width="8" height="26" stroke="#E6E5EA" stroke-width="2"/>
</svg>
